<mxfile host="65bd71144e">
    <diagram id="ookpaDRPKkVNfCSS1Xwm" name="Hierarchy">
        <mxGraphModel dx="1546" dy="1162" grid="1" gridSize="10" guides="1" tooltips="1" connect="1" arrows="1" fold="1" page="1" pageScale="1" pageWidth="1654" pageHeight="2336" background="#ffffff" math="0" shadow="1">
            <root>
                <mxCell id="0"/>
                <mxCell id="1" parent="0"/>
                <mxCell id="bsXwJmWNp_ecL42Riule-19" style="edgeStyle=none;html=1;exitX=0.75;exitY=0;exitDx=0;exitDy=0;entryX=0.391;entryY=1;entryDx=0;entryDy=0;entryPerimeter=0;fillColor=#0050ef;strokeColor=#001DBC;endArrow=classic;endFill=1;" edge="1" parent="1" source="2" target="3">
                    <mxGeometry relative="1" as="geometry">
                        <mxPoint x="460" y="200" as="targetPoint"/>
                    </mxGeometry>
                </mxCell>
                <mxCell id="VowZDnSh6vttMoc9aocq-20" style="edgeStyle=none;html=1;exitX=0.5;exitY=1;exitDx=0;exitDy=0;entryX=0.5;entryY=0;entryDx=0;entryDy=0;strokeColor=#001DBC;endArrow=none;endFill=0;fillColor=#0050ef;strokeWidth=2;" edge="1" parent="1" source="2" target="bsXwJmWNp_ecL42Riule-3">
                    <mxGeometry relative="1" as="geometry"/>
                </mxCell>
                <mxCell id="2" value="Game" style="rounded=0;whiteSpace=wrap;html=1;" parent="1" vertex="1">
                    <mxGeometry x="290" y="240" width="110" height="50" as="geometry"/>
                </mxCell>
                <mxCell id="VowZDnSh6vttMoc9aocq-15" style="edgeStyle=none;html=1;entryX=0.5;entryY=0;entryDx=0;entryDy=0;strokeColor=#1F18F0;endArrow=classic;endFill=1;" edge="1" parent="1" source="3" target="2">
                    <mxGeometry relative="1" as="geometry"/>
                </mxCell>
                <mxCell id="VowZDnSh6vttMoc9aocq-16" style="edgeStyle=none;html=1;strokeColor=#1F18F0;endArrow=classic;endFill=1;exitX=0.5;exitY=1;exitDx=0;exitDy=0;" edge="1" parent="1" source="3" target="bsXwJmWNp_ecL42Riule-13">
                    <mxGeometry relative="1" as="geometry"/>
                </mxCell>
                <mxCell id="3" value="Application" style="rounded=0;whiteSpace=wrap;html=1;" vertex="1" parent="1">
                    <mxGeometry x="410" y="140" width="110" height="50" as="geometry"/>
                </mxCell>
                <mxCell id="bsXwJmWNp_ecL42Riule-29" style="edgeStyle=none;html=1;exitX=0.5;exitY=1;exitDx=0;exitDy=0;entryX=0.5;entryY=0;entryDx=0;entryDy=0;strokeColor=#0000CC;endArrow=none;endFill=0;strokeWidth=2;" edge="1" parent="1" source="bsXwJmWNp_ecL42Riule-3" target="bsXwJmWNp_ecL42Riule-14">
                    <mxGeometry relative="1" as="geometry"/>
                </mxCell>
                <mxCell id="bsXwJmWNp_ecL42Riule-3" value="Player" style="rounded=0;whiteSpace=wrap;html=1;" vertex="1" parent="1">
                    <mxGeometry x="290" y="320" width="110" height="50" as="geometry"/>
                </mxCell>
                <mxCell id="bsXwJmWNp_ecL42Riule-31" style="edgeStyle=none;html=1;exitX=0.327;exitY=0.02;exitDx=0;exitDy=0;strokeColor=#0000CC;endArrow=classic;endFill=1;entryX=0.75;entryY=1;entryDx=0;entryDy=0;exitPerimeter=0;" edge="1" parent="1" source="bsXwJmWNp_ecL42Riule-13" target="3">
                    <mxGeometry relative="1" as="geometry">
                        <mxPoint x="560" y="180" as="targetPoint"/>
                    </mxGeometry>
                </mxCell>
                <mxCell id="bsXwJmWNp_ecL42Riule-13" value="User Interface" style="rounded=0;whiteSpace=wrap;html=1;" vertex="1" parent="1">
                    <mxGeometry x="540" y="240" width="110" height="50" as="geometry"/>
                </mxCell>
                <mxCell id="bsXwJmWNp_ecL42Riule-23" style="edgeStyle=none;html=1;exitX=0.5;exitY=0;exitDx=0;exitDy=0;entryX=0.5;entryY=1;entryDx=0;entryDy=0;fillColor=#0050ef;strokeColor=#001DBC;endArrow=none;endFill=0;strokeWidth=2;" edge="1" parent="1" source="bsXwJmWNp_ecL42Riule-15" target="bsXwJmWNp_ecL42Riule-3">
                    <mxGeometry relative="1" as="geometry"/>
                </mxCell>
                <mxCell id="bsXwJmWNp_ecL42Riule-27" style="edgeStyle=none;html=1;exitX=0.75;exitY=1;exitDx=0;exitDy=0;entryX=0;entryY=0.5;entryDx=0;entryDy=0;endArrow=none;endFill=0;strokeColor=#0000CC;dashed=1;strokeWidth=2;" edge="1" parent="1" source="bsXwJmWNp_ecL42Riule-15" target="bsXwJmWNp_ecL42Riule-16">
                    <mxGeometry relative="1" as="geometry"/>
                </mxCell>
                <mxCell id="bsXwJmWNp_ecL42Riule-15" value="Ship" style="rounded=0;whiteSpace=wrap;html=1;" vertex="1" parent="1">
                    <mxGeometry x="190" y="400" width="110" height="50" as="geometry"/>
                </mxCell>
                <mxCell id="bsXwJmWNp_ecL42Riule-16" value="Cell" style="rounded=0;whiteSpace=wrap;html=1;" vertex="1" parent="1">
                    <mxGeometry x="370" y="530" width="110" height="50" as="geometry"/>
                </mxCell>
                <mxCell id="bsXwJmWNp_ecL42Riule-30" style="edgeStyle=none;html=1;exitX=0.5;exitY=1;exitDx=0;exitDy=0;strokeColor=#0000CC;endArrow=none;endFill=0;strokeWidth=2;" edge="1" parent="1" source="bsXwJmWNp_ecL42Riule-14" target="bsXwJmWNp_ecL42Riule-16">
                    <mxGeometry relative="1" as="geometry"/>
                </mxCell>
                <mxCell id="bsXwJmWNp_ecL42Riule-14" value="Board" style="rounded=0;whiteSpace=wrap;html=1;" vertex="1" parent="1">
                    <mxGeometry x="370" y="400" width="110" height="50" as="geometry"/>
                </mxCell>
                <mxCell id="VowZDnSh6vttMoc9aocq-13" value="" style="rounded=0;whiteSpace=wrap;html=1;" vertex="1" parent="1">
                    <mxGeometry x="1040" y="30" width="110" height="50" as="geometry"/>
                </mxCell>
                <mxCell id="VowZDnSh6vttMoc9aocq-14" value="" style="rounded=0;whiteSpace=wrap;html=1;fillColor=#4A4A4A;strokeColor=#36393d;" vertex="1" parent="1">
                    <mxGeometry x="1160" y="40" width="88" height="40" as="geometry"/>
                </mxCell>
                <mxCell id="VowZDnSh6vttMoc9aocq-22" style="edgeStyle=none;html=1;strokeColor=#1F18F0;endArrow=none;endFill=0;strokeWidth=2;" edge="1" parent="1" source="bsXwJmWNp_ecL42Riule-32" target="bsXwJmWNp_ecL42Riule-13">
                    <mxGeometry relative="1" as="geometry"/>
                </mxCell>
                <mxCell id="bsXwJmWNp_ecL42Riule-32" value="Static HTML" style="rounded=0;whiteSpace=wrap;html=1;" vertex="1" parent="1">
                    <mxGeometry x="730" y="240" width="110" height="50" as="geometry"/>
                </mxCell>
            </root>
        </mxGraphModel>
    </diagram>
    <diagram id="wbKEPGc2_LYJcGjL4RFg" name="Responsibilities">
        <mxGraphModel grid="1" page="1" gridSize="10" guides="1" tooltips="1" connect="1" arrows="1" fold="1" pageScale="1" pageWidth="1654" pageHeight="2336" background="#ffffff" math="0" shadow="0">
            <root>
                <mxCell id="0"/>
                <mxCell id="1" parent="0"/>
                <mxCell id="y0FtCq-6RYkQaQN8OZ1_-66" style="edgeStyle=none;html=1;exitX=0.5;exitY=1;exitDx=0;exitDy=0;entryX=0.582;entryY=0;entryDx=0;entryDy=0;entryPerimeter=0;strokeColor=#0000CC;strokeWidth=2;fontColor=#000000;endArrow=none;endFill=0;" edge="1" parent="1" source="Du9TJMCBxIKlXOXkkcHw-3" target="Du9TJMCBxIKlXOXkkcHw-8">
                    <mxGeometry relative="1" as="geometry"/>
                </mxCell>
                <mxCell id="y0FtCq-6RYkQaQN8OZ1_-67" style="edgeStyle=none;html=1;exitX=0.5;exitY=1;exitDx=0;exitDy=0;entryX=0.5;entryY=0;entryDx=0;entryDy=0;strokeColor=#0000CC;strokeWidth=2;fontColor=#000000;endArrow=none;endFill=0;" edge="1" parent="1" source="Du9TJMCBxIKlXOXkkcHw-3" target="y0FtCq-6RYkQaQN8OZ1_-46">
                    <mxGeometry relative="1" as="geometry"/>
                </mxCell>
                <mxCell id="y0FtCq-6RYkQaQN8OZ1_-68" style="edgeStyle=none;html=1;exitX=0.5;exitY=1;exitDx=0;exitDy=0;entryX=0.5;entryY=0;entryDx=0;entryDy=0;strokeColor=#0000CC;strokeWidth=2;fontColor=#000000;endArrow=none;endFill=0;" edge="1" parent="1" source="Du9TJMCBxIKlXOXkkcHw-3" target="y0FtCq-6RYkQaQN8OZ1_-48">
                    <mxGeometry relative="1" as="geometry"/>
                </mxCell>
                <mxCell id="Du9TJMCBxIKlXOXkkcHw-3" value="GameMaster" style="rounded=0;whiteSpace=wrap;html=1;" vertex="1" parent="1">
                    <mxGeometry x="760" y="190" width="110" height="50" as="geometry"/>
                </mxCell>
                <mxCell id="y0FtCq-6RYkQaQN8OZ1_-44" style="edgeStyle=none;html=1;exitX=0.5;exitY=1;exitDx=0;exitDy=0;entryX=0.5;entryY=0;entryDx=0;entryDy=0;strokeColor=#0000CC;strokeWidth=2;fontColor=#000000;endArrow=none;endFill=0;" edge="1" parent="1" source="Du9TJMCBxIKlXOXkkcHw-6" target="Du9TJMCBxIKlXOXkkcHw-3">
                    <mxGeometry relative="1" as="geometry"/>
                </mxCell>
                <mxCell id="y0FtCq-6RYkQaQN8OZ1_-71" style="edgeStyle=none;html=1;entryX=0;entryY=0.5;entryDx=0;entryDy=0;strokeColor=#0000CC;strokeWidth=2;fontColor=#000000;endArrow=none;endFill=0;" edge="1" parent="1" source="Du9TJMCBxIKlXOXkkcHw-6" target="y0FtCq-6RYkQaQN8OZ1_-70">
                    <mxGeometry relative="1" as="geometry"/>
                </mxCell>
                <mxCell id="Du9TJMCBxIKlXOXkkcHw-6" value="Dependency Controller" style="rounded=0;whiteSpace=wrap;html=1;" vertex="1" parent="1">
                    <mxGeometry x="760" y="80" width="110" height="50" as="geometry"/>
                </mxCell>
                <mxCell id="Du9TJMCBxIKlXOXkkcHw-7" style="edgeStyle=none;html=1;exitX=0.5;exitY=1;exitDx=0;exitDy=0;entryX=0.5;entryY=0;entryDx=0;entryDy=0;strokeColor=#0000CC;endArrow=none;endFill=0;strokeWidth=2;" edge="1" parent="1" source="Du9TJMCBxIKlXOXkkcHw-8" target="Du9TJMCBxIKlXOXkkcHw-16">
                    <mxGeometry relative="1" as="geometry"/>
                </mxCell>
                <mxCell id="Du9TJMCBxIKlXOXkkcHw-8" value="Player" style="rounded=0;whiteSpace=wrap;html=1;" vertex="1" parent="1">
                    <mxGeometry x="360" y="340" width="110" height="50" as="geometry"/>
                </mxCell>
                <mxCell id="Du9TJMCBxIKlXOXkkcHw-10" value="User Interface" style="rounded=0;whiteSpace=wrap;html=1;" vertex="1" parent="1">
                    <mxGeometry x="1120" y="280" width="110" height="50" as="geometry"/>
                </mxCell>
                <mxCell id="Du9TJMCBxIKlXOXkkcHw-11" style="edgeStyle=none;html=1;exitX=0.5;exitY=0;exitDx=0;exitDy=0;entryX=0.5;entryY=1;entryDx=0;entryDy=0;fillColor=#0050ef;strokeColor=#001DBC;endArrow=none;endFill=0;strokeWidth=2;" edge="1" parent="1" source="Du9TJMCBxIKlXOXkkcHw-13" target="Du9TJMCBxIKlXOXkkcHw-8">
                    <mxGeometry relative="1" as="geometry"/>
                </mxCell>
                <mxCell id="Du9TJMCBxIKlXOXkkcHw-12" style="edgeStyle=none;html=1;exitX=0.75;exitY=1;exitDx=0;exitDy=0;entryX=0;entryY=0.5;entryDx=0;entryDy=0;endArrow=none;endFill=0;strokeColor=#0000CC;dashed=1;strokeWidth=2;" edge="1" parent="1" source="Du9TJMCBxIKlXOXkkcHw-13" target="Du9TJMCBxIKlXOXkkcHw-14">
                    <mxGeometry relative="1" as="geometry"/>
                </mxCell>
                <mxCell id="Du9TJMCBxIKlXOXkkcHw-13" value="Ship" style="rounded=0;whiteSpace=wrap;html=1;" vertex="1" parent="1">
                    <mxGeometry x="260" y="460" width="110" height="50" as="geometry"/>
                </mxCell>
                <mxCell id="Du9TJMCBxIKlXOXkkcHw-14" value="Cell" style="rounded=0;whiteSpace=wrap;html=1;" vertex="1" parent="1">
                    <mxGeometry x="440" y="590" width="110" height="50" as="geometry"/>
                </mxCell>
                <mxCell id="Du9TJMCBxIKlXOXkkcHw-15" style="edgeStyle=none;html=1;exitX=0.5;exitY=1;exitDx=0;exitDy=0;strokeColor=#0000CC;endArrow=none;endFill=0;strokeWidth=2;" edge="1" parent="1" source="Du9TJMCBxIKlXOXkkcHw-16" target="Du9TJMCBxIKlXOXkkcHw-14">
                    <mxGeometry relative="1" as="geometry"/>
                </mxCell>
                <mxCell id="F8GR_qd3UkaRizh4Ki8r-7" style="edgeStyle=none;html=1;exitX=0;exitY=0.5;exitDx=0;exitDy=0;entryX=1;entryY=0.5;entryDx=0;entryDy=0;strokeColor=#1F18F0;strokeWidth=2;fontColor=#0A0A0A;endArrow=none;endFill=0;" edge="1" parent="1" source="Du9TJMCBxIKlXOXkkcHw-16" target="Du9TJMCBxIKlXOXkkcHw-13">
                    <mxGeometry relative="1" as="geometry"/>
                </mxCell>
                <mxCell id="Du9TJMCBxIKlXOXkkcHw-16" value="Board" style="rounded=0;whiteSpace=wrap;html=1;" vertex="1" parent="1">
                    <mxGeometry x="440" y="460" width="110" height="50" as="geometry"/>
                </mxCell>
                <mxCell id="Du9TJMCBxIKlXOXkkcHw-17" style="edgeStyle=none;html=1;strokeColor=#1F18F0;endArrow=none;endFill=0;strokeWidth=2;" edge="1" parent="1" source="Du9TJMCBxIKlXOXkkcHw-18" target="Du9TJMCBxIKlXOXkkcHw-10">
                    <mxGeometry relative="1" as="geometry"/>
                </mxCell>
                <mxCell id="Du9TJMCBxIKlXOXkkcHw-18" value="Static HTML" style="rounded=0;whiteSpace=wrap;html=1;" vertex="1" parent="1">
                    <mxGeometry x="1190" y="360" width="110" height="50" as="geometry"/>
                </mxCell>
                <mxCell id="SY-9ttIYWtdiYqtEcbA--1" value="&lt;font color=&quot;#0a0a0a&quot;&gt;cell.occupied: Ship&lt;br&gt;cell.wasAttacked: bool&lt;br&gt;redirector functions (?)&lt;br&gt;&lt;/font&gt;" style="text;align=left;html=1;verticalAlign=middle;whiteSpace=wrap;rounded=0;glass=0;shadow=0;" vertex="1" parent="1">
                    <mxGeometry x="560" y="580" width="130" height="90" as="geometry"/>
                </mxCell>
                <mxCell id="F8GR_qd3UkaRizh4Ki8r-1" value="&lt;font color=&quot;#0a0a0a&quot;&gt;board.ships: []&lt;br&gt;board.grid: []&lt;br&gt;history: []&lt;br&gt;board.shipyard (?)&lt;br&gt;&lt;br&gt;registerAttack()&lt;br&gt;storeAttack()&lt;br&gt;placeShip()&lt;br&gt;removeShip()&lt;br&gt;&lt;/font&gt;" style="text;align=left;html=1;verticalAlign=middle;whiteSpace=wrap;rounded=0;glass=0;shadow=0;" vertex="1" parent="1">
                    <mxGeometry x="560" y="447" width="100" height="90" as="geometry"/>
                </mxCell>
                <mxCell id="F8GR_qd3UkaRizh4Ki8r-4" value="&lt;div style=&quot;&quot;&gt;&lt;font color=&quot;#0a0a0a&quot;&gt;type&lt;/font&gt;&lt;span style=&quot;color: rgb(10, 10, 10); background-color: initial;&quot;&gt;: str&lt;/span&gt;&lt;/div&gt;&lt;div style=&quot;&quot;&gt;&lt;font color=&quot;#0a0a0a&quot;&gt;cells: []&lt;/font&gt;&lt;/div&gt;&lt;div style=&quot;&quot;&gt;&lt;font color=&quot;#0a0a0a&quot;&gt;nrHitsTaken = 0&lt;/font&gt;&lt;/div&gt;&lt;div style=&quot;&quot;&gt;&lt;font color=&quot;#0a0a0a&quot;&gt;Reference to shipElement (?)&lt;/font&gt;&lt;/div&gt;&lt;div style=&quot;&quot;&gt;&lt;br&gt;&lt;/div&gt;&lt;div style=&quot;&quot;&gt;&lt;br&gt;&lt;/div&gt;" style="text;align=right;html=1;verticalAlign=middle;whiteSpace=wrap;rounded=0;glass=0;shadow=0;" vertex="1" parent="1">
                    <mxGeometry x="80" y="460" width="170" height="90" as="geometry"/>
                </mxCell>
                <mxCell id="F8GR_qd3UkaRizh4Ki8r-5" value="&lt;font color=&quot;#0a0a0a&quot;&gt;name: str&lt;br&gt;type: human | computer | network&lt;br&gt;board: Board&lt;br&gt;active: bool&lt;br&gt;myOpponent&lt;br&gt;&lt;/font&gt;" style="text;align=left;html=1;verticalAlign=middle;whiteSpace=wrap;rounded=0;glass=0;shadow=0;" vertex="1" parent="1">
                    <mxGeometry x="480" y="330" width="190" height="90" as="geometry"/>
                </mxCell>
                <mxCell id="F8GR_qd3UkaRizh4Ki8r-8" value="&lt;div style=&quot;&quot;&gt;&lt;font color=&quot;#0a0a0a&quot;&gt;players: []&lt;/font&gt;&lt;/div&gt;&lt;div style=&quot;&quot;&gt;&lt;font color=&quot;#0a0a0a&quot;&gt;gamestate: {} / Symbol&lt;/font&gt;&lt;/div&gt;&lt;div style=&quot;&quot;&gt;&lt;font color=&quot;#0a0a0a&quot;&gt;callbacks: {Application}&lt;/font&gt;&lt;/div&gt;" style="text;align=right;html=1;verticalAlign=middle;whiteSpace=wrap;rounded=0;glass=0;shadow=0;" vertex="1" parent="1">
                    <mxGeometry x="610" y="170" width="140" height="90" as="geometry"/>
                </mxCell>
                <mxCell id="y0FtCq-6RYkQaQN8OZ1_-54" style="edgeStyle=none;html=1;exitX=1;exitY=0.5;exitDx=0;exitDy=0;strokeColor=#0000CC;strokeWidth=2;fontColor=#000000;endArrow=none;endFill=0;" edge="1" parent="1" source="y0FtCq-6RYkQaQN8OZ1_-46" target="y0FtCq-6RYkQaQN8OZ1_-48">
                    <mxGeometry relative="1" as="geometry"/>
                </mxCell>
                <mxCell id="y0FtCq-6RYkQaQN8OZ1_-46" value="Rules" style="rounded=0;whiteSpace=wrap;html=1;fillColor=#1ba1e2;fontColor=#ffffff;strokeColor=#006EAF;" vertex="1" parent="1">
                    <mxGeometry x="680" y="340" width="110" height="50" as="geometry"/>
                </mxCell>
                <mxCell id="y0FtCq-6RYkQaQN8OZ1_-60" style="edgeStyle=none;html=1;exitX=0.5;exitY=1;exitDx=0;exitDy=0;entryX=0.5;entryY=0;entryDx=0;entryDy=0;strokeColor=#0000CC;strokeWidth=2;fontColor=#000000;endArrow=none;endFill=0;" edge="1" parent="1" source="y0FtCq-6RYkQaQN8OZ1_-48" target="y0FtCq-6RYkQaQN8OZ1_-51">
                    <mxGeometry relative="1" as="geometry"/>
                </mxCell>
                <mxCell id="y0FtCq-6RYkQaQN8OZ1_-61" style="edgeStyle=none;html=1;exitX=0.5;exitY=1;exitDx=0;exitDy=0;entryX=0.5;entryY=0;entryDx=0;entryDy=0;strokeColor=#0000CC;strokeWidth=2;fontColor=#000000;endArrow=none;endFill=0;" edge="1" parent="1" source="y0FtCq-6RYkQaQN8OZ1_-48" target="y0FtCq-6RYkQaQN8OZ1_-50">
                    <mxGeometry relative="1" as="geometry"/>
                </mxCell>
                <mxCell id="y0FtCq-6RYkQaQN8OZ1_-62" style="edgeStyle=none;html=1;exitX=0.5;exitY=1;exitDx=0;exitDy=0;strokeColor=#0000CC;strokeWidth=2;fontColor=#000000;endArrow=none;endFill=0;" edge="1" parent="1" source="y0FtCq-6RYkQaQN8OZ1_-48" target="y0FtCq-6RYkQaQN8OZ1_-55">
                    <mxGeometry relative="1" as="geometry"/>
                </mxCell>
                <mxCell id="y0FtCq-6RYkQaQN8OZ1_-48" value="Control&lt;br&gt;(Game Stage)" style="rounded=0;whiteSpace=wrap;html=1;" vertex="1" parent="1">
                    <mxGeometry x="850" y="340" width="110" height="50" as="geometry"/>
                </mxCell>
                <mxCell id="F8GR_qd3UkaRizh4Ki8r-12" style="edgeStyle=none;html=1;entryX=1;entryY=0.5;entryDx=0;entryDy=0;strokeColor=#1F18F0;strokeWidth=2;fontColor=#0A0A0A;endArrow=none;endFill=0;dashed=1;" edge="1" parent="1" source="y0FtCq-6RYkQaQN8OZ1_-49" target="Du9TJMCBxIKlXOXkkcHw-10">
                    <mxGeometry relative="1" as="geometry">
                        <Array as="points"/>
                    </mxGeometry>
                </mxCell>
                <mxCell id="F8GR_qd3UkaRizh4Ki8r-15" style="edgeStyle=none;html=1;entryX=0.618;entryY=0;entryDx=0;entryDy=0;entryPerimeter=0;strokeColor=#1F18F0;strokeWidth=2;fontColor=#0A0A0A;endArrow=none;endFill=0;" edge="1" parent="1" source="y0FtCq-6RYkQaQN8OZ1_-49" target="Du9TJMCBxIKlXOXkkcHw-18">
                    <mxGeometry relative="1" as="geometry"/>
                </mxCell>
                <mxCell id="y0FtCq-6RYkQaQN8OZ1_-49" value="Main Menu" style="rounded=0;whiteSpace=wrap;html=1;" vertex="1" parent="1">
                    <mxGeometry x="1260" y="280" width="110" height="50" as="geometry"/>
                </mxCell>
                <mxCell id="y0FtCq-6RYkQaQN8OZ1_-50" value="Fight" style="rounded=0;whiteSpace=wrap;html=1;fillColor=#1ba1e2;fontColor=#ffffff;strokeColor=#006EAF;" vertex="1" parent="1">
                    <mxGeometry x="850" y="500" width="110" height="50" as="geometry"/>
                </mxCell>
                <mxCell id="y0FtCq-6RYkQaQN8OZ1_-51" value="Deploy" style="rounded=0;whiteSpace=wrap;html=1;fillColor=#1ba1e2;fontColor=#ffffff;strokeColor=#006EAF;" vertex="1" parent="1">
                    <mxGeometry x="970" y="500" width="110" height="50" as="geometry"/>
                </mxCell>
                <mxCell id="y0FtCq-6RYkQaQN8OZ1_-55" value="Turns" style="rounded=0;whiteSpace=wrap;html=1;fillColor=#1ba1e2;fontColor=#ffffff;strokeColor=#006EAF;" vertex="1" parent="1">
                    <mxGeometry x="730" y="500" width="110" height="50" as="geometry"/>
                </mxCell>
                <mxCell id="y0FtCq-6RYkQaQN8OZ1_-70" value="Tests" style="rounded=0;whiteSpace=wrap;html=1;fillColor=#1ba1e2;fontColor=#ffffff;strokeColor=#006EAF;" vertex="1" parent="1">
                    <mxGeometry x="970" y="80" width="110" height="50" as="geometry"/>
                </mxCell>
                <mxCell id="drKMOj9nQzyufKL2G8rE-3" value="" style="endArrow=none;html=1;strokeColor=#0000CC;strokeWidth=2;fontColor=#000000;elbow=vertical;exitX=1;exitY=0.5;exitDx=0;exitDy=0;entryX=0;entryY=0.5;entryDx=0;entryDy=0;" edge="1" parent="1" source="Du9TJMCBxIKlXOXkkcHw-3" target="drKMOj9nQzyufKL2G8rE-6">
                    <mxGeometry width="50" height="50" relative="1" as="geometry">
                        <mxPoint x="1130" y="80" as="sourcePoint"/>
                        <mxPoint x="1280" y="60" as="targetPoint"/>
                        <Array as="points">
                            <mxPoint x="1030" y="240"/>
                            <mxPoint x="990" y="210"/>
                            <mxPoint x="950" y="180"/>
                        </Array>
                    </mxGeometry>
                </mxCell>
                <mxCell id="aLHWvnOwBnnSr3-fGhmH-35" value="" style="outlineConnect=0;dashed=0;verticalLabelPosition=bottom;verticalAlign=top;align=center;html=1;shape=mxgraph.aws3.route_table;fillColor=#F58536;gradientColor=none;rounded=0;shadow=0;glass=0;sketch=0;fontColor=#0A0A0A;" vertex="1" parent="1">
                    <mxGeometry x="1090" y="159" width="45" height="31" as="geometry"/>
                </mxCell>
                <mxCell id="drKMOj9nQzyufKL2G8rE-12" style="html=1;exitX=0.5;exitY=1;exitDx=0;exitDy=0;entryX=0.5;entryY=0;entryDx=0;entryDy=0;strokeColor=#0000CC;strokeWidth=3;fontColor=#000000;endArrow=none;endFill=0;elbow=vertical;" edge="1" parent="1" source="drKMOj9nQzyufKL2G8rE-6" target="Du9TJMCBxIKlXOXkkcHw-10">
                    <mxGeometry relative="1" as="geometry"/>
                </mxCell>
                <mxCell id="drKMOj9nQzyufKL2G8rE-6" value="WebSocket&lt;br&gt;Client" style="rounded=0;whiteSpace=wrap;html=1;" vertex="1" parent="1">
                    <mxGeometry x="1120" y="190" width="110" height="50" as="geometry"/>
                </mxCell>
            </root>
        </mxGraphModel>
    </diagram>
    <diagram id="qqZbDXcYOEViSlWH2ET_" name="Procesdures">
        <mxGraphModel dx="1546" dy="1162" grid="1" gridSize="10" guides="1" tooltips="1" connect="1" arrows="1" fold="1" page="1" pageScale="1" pageWidth="1654" pageHeight="2336" background="#ffffff" math="0" shadow="0">
            <root>
                <mxCell id="0"/>
                <mxCell id="1" parent="0"/>
                <mxCell id="b8E-oc8spVKGHlDykWzb-1" value="&lt;font color=&quot;#000000&quot;&gt;Place Ship&lt;/font&gt;" style="strokeWidth=2;html=1;shape=mxgraph.flowchart.terminator;whiteSpace=wrap;labelBackgroundColor=none;fillColor=none;strokeColor=#000000;" vertex="1" parent="1">
                    <mxGeometry x="430" y="220" width="100" height="50" as="geometry"/>
                </mxCell>
                <mxCell id="ORthjPKoObwqh8UE0Lax-1" value="&lt;font color=&quot;#000000&quot;&gt;Attack&lt;/font&gt;" style="strokeWidth=2;html=1;shape=mxgraph.flowchart.terminator;whiteSpace=wrap;labelBackgroundColor=none;fillColor=none;strokeColor=#000000;" vertex="1" parent="1">
                    <mxGeometry x="430" y="340" width="100" height="50" as="geometry"/>
                </mxCell>
                <mxCell id="ORthjPKoObwqh8UE0Lax-2" value="&lt;font color=&quot;#000000&quot;&gt;Suffer&lt;br&gt;&lt;/font&gt;" style="strokeWidth=2;html=1;shape=mxgraph.flowchart.terminator;whiteSpace=wrap;labelBackgroundColor=none;fillColor=none;strokeColor=#000000;" vertex="1" parent="1">
                    <mxGeometry x="430" y="400" width="100" height="50" as="geometry"/>
                </mxCell>
                <mxCell id="b8E-oc8spVKGHlDykWzb-5" value="Board" style="shape=ext;double=0;rounded=0;whiteSpace=wrap;html=1;labelBackgroundColor=#FFFFFF;strokeColor=#000000;strokeWidth=2;fontColor=#000000;fillColor=none;" vertex="1" parent="1">
                    <mxGeometry x="670" y="345" width="120" height="40" as="geometry"/>
                </mxCell>
                <mxCell id="b8E-oc8spVKGHlDykWzb-6" value="UI" style="shape=ext;double=0;rounded=0;whiteSpace=wrap;html=1;labelBackgroundColor=#FFFFFF;strokeColor=#000000;strokeWidth=2;fontColor=#000000;fillColor=none;" vertex="1" parent="1">
                    <mxGeometry x="800" y="345" width="120" height="40" as="geometry"/>
                </mxCell>
                <mxCell id="b8E-oc8spVKGHlDykWzb-7" value="&lt;font color=&quot;#000000&quot;&gt;Create&lt;br&gt;Player&lt;br&gt;Name, AI, Network&lt;br&gt;&lt;/font&gt;" style="strokeWidth=2;html=1;shape=mxgraph.flowchart.terminator;whiteSpace=wrap;labelBackgroundColor=none;fillColor=none;strokeColor=#000000;" vertex="1" parent="1">
                    <mxGeometry x="430" y="80" width="100" height="70" as="geometry"/>
                </mxCell>
                <mxCell id="b8E-oc8spVKGHlDykWzb-11" value="&lt;font color=&quot;#000000&quot;&gt;Start Game&lt;br&gt;&lt;/font&gt;" style="strokeWidth=2;html=1;shape=mxgraph.flowchart.terminator;whiteSpace=wrap;labelBackgroundColor=none;fillColor=none;strokeColor=#000000;" vertex="1" parent="1">
                    <mxGeometry x="430" y="160" width="100" height="50" as="geometry"/>
                </mxCell>
                <mxCell id="b8E-oc8spVKGHlDykWzb-12" value="&lt;font color=&quot;#000000&quot;&gt;Done Placing&lt;/font&gt;" style="strokeWidth=2;html=1;shape=mxgraph.flowchart.terminator;whiteSpace=wrap;labelBackgroundColor=none;fillColor=none;strokeColor=#000000;" vertex="1" parent="1">
                    <mxGeometry x="430" y="280" width="100" height="50" as="geometry"/>
                </mxCell>
                <mxCell id="b8E-oc8spVKGHlDykWzb-13" value="Board" style="shape=ext;double=0;rounded=0;whiteSpace=wrap;html=1;labelBackgroundColor=#FFFFFF;strokeColor=#000000;strokeWidth=2;fontColor=#000000;fillColor=none;" vertex="1" parent="1">
                    <mxGeometry x="550" y="400" width="120" height="40" as="geometry"/>
                </mxCell>
                <mxCell id="b8E-oc8spVKGHlDykWzb-14" value="UI" style="shape=ext;double=0;rounded=0;whiteSpace=wrap;html=1;labelBackgroundColor=#FFFFFF;strokeColor=#000000;strokeWidth=2;fontColor=#000000;fillColor=none;" vertex="1" parent="1">
                    <mxGeometry x="800" y="400" width="120" height="40" as="geometry"/>
                </mxCell>
                <mxCell id="b8E-oc8spVKGHlDykWzb-15" value="Hit shitp" style="shape=ext;double=0;rounded=0;whiteSpace=wrap;html=1;labelBackgroundColor=#FFFFFF;strokeColor=#000000;strokeWidth=2;fontColor=#000000;fillColor=none;" vertex="1" parent="1">
                    <mxGeometry x="670" y="400" width="120" height="40" as="geometry"/>
                </mxCell>
                <mxCell id="b8E-oc8spVKGHlDykWzb-16" value="Remember" style="shape=ext;double=0;rounded=0;whiteSpace=wrap;html=1;labelBackgroundColor=#FFFFFF;strokeColor=#000000;strokeWidth=2;fontColor=#000000;fillColor=none;" vertex="1" parent="1">
                    <mxGeometry x="550" y="345" width="120" height="40" as="geometry"/>
                </mxCell>
                <mxCell id="b8E-oc8spVKGHlDykWzb-17" value="Board" style="shape=ext;double=0;rounded=0;whiteSpace=wrap;html=1;labelBackgroundColor=#FFFFFF;strokeColor=#000000;strokeWidth=2;fontColor=#000000;fillColor=none;" vertex="1" parent="1">
                    <mxGeometry x="547" y="225" width="120" height="40" as="geometry"/>
                </mxCell>
                <mxCell id="b8E-oc8spVKGHlDykWzb-18" value="UI" style="shape=ext;double=0;rounded=0;whiteSpace=wrap;html=1;labelBackgroundColor=#FFFFFF;strokeColor=#000000;strokeWidth=2;fontColor=#000000;fillColor=none;" vertex="1" parent="1">
                    <mxGeometry x="667" y="225" width="120" height="40" as="geometry"/>
                </mxCell>
                <mxCell id="b8E-oc8spVKGHlDykWzb-19" value="Reset Stuff" style="shape=ext;double=0;rounded=0;whiteSpace=wrap;html=1;labelBackgroundColor=#FFFFFF;strokeColor=#000000;strokeWidth=2;fontColor=#000000;fillColor=none;" vertex="1" parent="1">
                    <mxGeometry x="547" y="165" width="120" height="40" as="geometry"/>
                </mxCell>
                <mxCell id="b8E-oc8spVKGHlDykWzb-20" value="UI" style="shape=ext;double=0;rounded=0;whiteSpace=wrap;html=1;labelBackgroundColor=#FFFFFF;strokeColor=#000000;strokeWidth=2;fontColor=#000000;fillColor=none;" vertex="1" parent="1">
                    <mxGeometry x="547" y="95" width="120" height="40" as="geometry"/>
                </mxCell>
                <mxCell id="b8E-oc8spVKGHlDykWzb-21" value="AI" style="shape=ext;double=0;rounded=0;whiteSpace=wrap;html=1;labelBackgroundColor=#FFFFFF;strokeColor=#000000;strokeWidth=2;fontColor=#000000;fillColor=none;" vertex="1" parent="1">
                    <mxGeometry x="677" y="95" width="120" height="40" as="geometry"/>
                </mxCell>
                <mxCell id="b8E-oc8spVKGHlDykWzb-23" value="Remote" style="shape=ext;double=0;rounded=0;whiteSpace=wrap;html=1;labelBackgroundColor=#FFFFFF;strokeColor=#000000;strokeWidth=2;fontColor=#000000;fillColor=none;" vertex="1" parent="1">
                    <mxGeometry x="677" y="55" width="120" height="40" as="geometry"/>
                </mxCell>
                <mxCell id="b8E-oc8spVKGHlDykWzb-26" value="" style="edgeStyle=elbowEdgeStyle;elbow=horizontal;endArrow=classic;html=1;curved=0;rounded=0;endSize=8;startSize=8;strokeColor=#0000CC;strokeWidth=2;fontColor=#000000;exitX=0;exitY=0.5;exitDx=0;exitDy=0;exitPerimeter=0;entryX=0;entryY=0.5;entryDx=0;entryDy=0;entryPerimeter=0;" edge="1" parent="1" source="b8E-oc8spVKGHlDykWzb-29" target="ORthjPKoObwqh8UE0Lax-1">
                    <mxGeometry width="50" height="50" relative="1" as="geometry">
                        <mxPoint x="430" y="485" as="sourcePoint"/>
                        <mxPoint x="400" y="370" as="targetPoint"/>
                        <Array as="points">
                            <mxPoint x="400" y="430"/>
                        </Array>
                    </mxGeometry>
                </mxCell>
                <mxCell id="b8E-oc8spVKGHlDykWzb-28" value="UI" style="shape=ext;double=0;rounded=0;whiteSpace=wrap;html=1;labelBackgroundColor=#FFFFFF;strokeColor=#000000;strokeWidth=2;fontColor=#000000;fillColor=none;" vertex="1" parent="1">
                    <mxGeometry x="670" y="500" width="120" height="40" as="geometry"/>
                </mxCell>
                <mxCell id="b8E-oc8spVKGHlDykWzb-29" value="Win?" style="strokeWidth=2;html=1;shape=mxgraph.flowchart.decision;whiteSpace=wrap;labelBackgroundColor=#FFFFFF;strokeColor=#000000;fontColor=#000000;fillColor=none;" vertex="1" parent="1">
                    <mxGeometry x="430" y="470" width="100" height="100" as="geometry"/>
                </mxCell>
                <mxCell id="b8E-oc8spVKGHlDykWzb-30" value="Board" style="shape=ext;double=0;rounded=0;whiteSpace=wrap;html=1;labelBackgroundColor=#FFFFFF;strokeColor=#000000;strokeWidth=2;fontColor=#000000;fillColor=none;" vertex="1" parent="1">
                    <mxGeometry x="550" y="500" width="120" height="40" as="geometry"/>
                </mxCell>
                <mxCell id="b8E-oc8spVKGHlDykWzb-32" value="" style="edgeStyle=elbowEdgeStyle;elbow=horizontal;endArrow=classic;html=1;curved=0;rounded=0;endSize=8;startSize=8;strokeColor=#0000CC;strokeWidth=2;fontColor=#000000;entryX=0;entryY=0.5;entryDx=0;entryDy=0;entryPerimeter=0;exitX=0.5;exitY=1;exitDx=0;exitDy=0;exitPerimeter=0;" edge="1" parent="1" source="b8E-oc8spVKGHlDykWzb-29" target="b8E-oc8spVKGHlDykWzb-7">
                    <mxGeometry width="50" height="50" relative="1" as="geometry">
                        <mxPoint x="300" y="170" as="sourcePoint"/>
                        <mxPoint x="350" y="120" as="targetPoint"/>
                        <Array as="points">
                            <mxPoint x="340" y="140"/>
                        </Array>
                    </mxGeometry>
                </mxCell>
                <mxCell id="b8E-oc8spVKGHlDykWzb-33" value="&lt;font color=&quot;#000000&quot;&gt;Board&lt;/font&gt;" style="strokeWidth=2;html=1;shape=mxgraph.flowchart.terminator;whiteSpace=wrap;labelBackgroundColor=none;fillColor=none;strokeColor=#000000;" vertex="1" parent="1">
                    <mxGeometry x="1150" y="70" width="100" height="50" as="geometry"/>
                </mxCell>
                <mxCell id="b8E-oc8spVKGHlDykWzb-34" value="Reset" style="shape=ext;double=0;rounded=0;whiteSpace=wrap;html=1;labelBackgroundColor=#FFFFFF;strokeColor=#000000;strokeWidth=2;fontColor=#000000;fillColor=none;" vertex="1" parent="1">
                    <mxGeometry x="1140" y="135" width="120" height="40" as="geometry"/>
                </mxCell>
                <mxCell id="b8E-oc8spVKGHlDykWzb-35" value="Perform Checks?" style="shape=ext;double=0;rounded=0;whiteSpace=wrap;html=1;labelBackgroundColor=#FFFFFF;strokeColor=#000000;strokeWidth=2;fontColor=#000000;fillColor=none;" vertex="1" parent="1">
                    <mxGeometry x="1140" y="190" width="120" height="40" as="geometry"/>
                </mxCell>
                <mxCell id="b8E-oc8spVKGHlDykWzb-37" value="&lt;font color=&quot;#000000&quot;&gt;Ship&lt;/font&gt;" style="strokeWidth=2;html=1;shape=mxgraph.flowchart.terminator;whiteSpace=wrap;labelBackgroundColor=none;fillColor=none;strokeColor=#000000;" vertex="1" parent="1">
                    <mxGeometry x="1480" y="70" width="100" height="50" as="geometry"/>
                </mxCell>
                <mxCell id="b8E-oc8spVKGHlDykWzb-39" value="receive Attack" style="shape=ext;double=0;rounded=0;whiteSpace=wrap;html=1;labelBackgroundColor=#FFFFFF;strokeColor=#000000;strokeWidth=2;fontColor=#000000;fillColor=none;" vertex="1" parent="1">
                    <mxGeometry x="1470" y="135" width="120" height="40" as="geometry"/>
                </mxCell>
                <mxCell id="b8E-oc8spVKGHlDykWzb-40" value="sink" style="shape=ext;double=0;rounded=0;whiteSpace=wrap;html=1;labelBackgroundColor=#FFFFFF;strokeColor=#000000;strokeWidth=2;fontColor=#000000;fillColor=none;" vertex="1" parent="1">
                    <mxGeometry x="1470" y="190" width="120" height="40" as="geometry"/>
                </mxCell>
                <mxCell id="b8E-oc8spVKGHlDykWzb-41" value="place to board" style="shape=ext;double=0;rounded=0;whiteSpace=wrap;html=1;labelBackgroundColor=#FFFFFF;strokeColor=#000000;strokeWidth=2;fontColor=#000000;fillColor=none;" vertex="1" parent="1">
                    <mxGeometry x="1470" y="250" width="120" height="40" as="geometry"/>
                </mxCell>
                <mxCell id="b8E-oc8spVKGHlDykWzb-42" value="render to HTML" style="shape=ext;double=0;rounded=0;whiteSpace=wrap;html=1;labelBackgroundColor=#FFFFFF;strokeColor=#000000;strokeWidth=2;fontColor=#000000;fillColor=none;" vertex="1" parent="1">
                    <mxGeometry x="1470" y="305" width="120" height="40" as="geometry"/>
                </mxCell>
                <mxCell id="ORthjPKoObwqh8UE0Lax-3" value="&lt;font color=&quot;#000000&quot;&gt;Shipyard&lt;/font&gt;" style="strokeWidth=2;html=1;shape=mxgraph.flowchart.terminator;whiteSpace=wrap;labelBackgroundColor=none;fillColor=none;strokeColor=#000000;" vertex="1" parent="1">
                    <mxGeometry x="1320" y="70" width="100" height="50" as="geometry"/>
                </mxCell>
                <mxCell id="ORthjPKoObwqh8UE0Lax-4" value="Reset" style="shape=ext;double=0;rounded=0;whiteSpace=wrap;html=1;labelBackgroundColor=#FFFFFF;strokeColor=#000000;strokeWidth=2;fontColor=#000000;fillColor=none;" vertex="1" parent="1">
                    <mxGeometry x="1310" y="135" width="120" height="40" as="geometry"/>
                </mxCell>
                <mxCell id="ORthjPKoObwqh8UE0Lax-5" value="Rotate ships" style="shape=ext;double=0;rounded=0;whiteSpace=wrap;html=1;labelBackgroundColor=#FFFFFF;strokeColor=#000000;strokeWidth=2;fontColor=#000000;fillColor=none;" vertex="1" parent="1">
                    <mxGeometry x="1310" y="190" width="120" height="40" as="geometry"/>
                </mxCell>
                <mxCell id="b8E-oc8spVKGHlDykWzb-43" value="Manage Shipyard?" style="shape=ext;double=0;rounded=0;whiteSpace=wrap;html=1;labelBackgroundColor=#FFFFFF;strokeColor=#000000;strokeWidth=2;fontColor=#000000;fillColor=none;" vertex="1" parent="1">
                    <mxGeometry x="1140" y="250" width="120" height="40" as="geometry"/>
                </mxCell>
                <mxCell id="b8E-oc8spVKGHlDykWzb-44" value="&lt;font color=&quot;#000000&quot;&gt;Next Player&lt;/font&gt;" style="strokeWidth=2;html=1;shape=mxgraph.flowchart.terminator;whiteSpace=wrap;labelBackgroundColor=none;fillColor=none;strokeColor=#000000;" vertex="1" parent="1">
                    <mxGeometry x="1300" y="380" width="100" height="50" as="geometry"/>
                </mxCell>
                <mxCell id="C_cgoFIveu7nDIHuEKbF-1" value="&lt;font color=&quot;#000000&quot;&gt;Game state&lt;br&gt;&lt;/font&gt;" style="strokeWidth=2;html=1;shape=mxgraph.flowchart.terminator;whiteSpace=wrap;labelBackgroundColor=none;fillColor=none;strokeColor=#000000;" vertex="1" parent="1">
                    <mxGeometry x="1150" y="380" width="100" height="50" as="geometry"/>
                </mxCell>
                <mxCell id="b8E-oc8spVKGHlDykWzb-55" style="edgeStyle=none;html=1;exitX=0;exitY=0.5;exitDx=0;exitDy=0;strokeColor=#0000CC;strokeWidth=2;fontColor=#000000;endArrow=none;endFill=0;entryX=1;entryY=0.5;entryDx=0;entryDy=0;" edge="1" parent="1" source="C_cgoFIveu7nDIHuEKbF-2" target="b8E-oc8spVKGHlDykWzb-56">
                    <mxGeometry relative="1" as="geometry">
                        <mxPoint x="1110" y="510" as="targetPoint"/>
                        <Array as="points">
                            <mxPoint x="1130" y="510"/>
                        </Array>
                    </mxGeometry>
                </mxCell>
                <mxCell id="C_cgoFIveu7nDIHuEKbF-2" value="Deploy" style="shape=ext;double=0;rounded=0;whiteSpace=wrap;html=1;labelBackgroundColor=#FFFFFF;strokeColor=#000000;strokeWidth=2;fontColor=#000000;fillColor=none;" vertex="1" parent="1">
                    <mxGeometry x="1140" y="490" width="120" height="40" as="geometry"/>
                </mxCell>
                <mxCell id="C_cgoFIveu7nDIHuEKbF-3" value="Fight" style="shape=ext;double=0;rounded=0;whiteSpace=wrap;html=1;labelBackgroundColor=#FFFFFF;strokeColor=#000000;strokeWidth=2;fontColor=#000000;fillColor=none;" vertex="1" parent="1">
                    <mxGeometry x="1140" y="590" width="120" height="40" as="geometry"/>
                </mxCell>
                <mxCell id="b8E-oc8spVKGHlDykWzb-45" value="Ended" style="shape=ext;double=0;rounded=0;whiteSpace=wrap;html=1;labelBackgroundColor=#FFFFFF;strokeColor=#000000;strokeWidth=2;fontColor=#000000;fillColor=none;" vertex="1" parent="1">
                    <mxGeometry x="1140" y="640" width="120" height="40" as="geometry"/>
                </mxCell>
                <mxCell id="b8E-oc8spVKGHlDykWzb-46" value="Wait all ready" style="shape=ext;double=0;rounded=0;whiteSpace=wrap;html=1;labelBackgroundColor=#FFFFFF;strokeColor=#000000;strokeWidth=2;fontColor=#000000;fillColor=none;" vertex="1" parent="1">
                    <mxGeometry x="1140" y="540" width="120" height="40" as="geometry"/>
                </mxCell>
                <mxCell id="b8E-oc8spVKGHlDykWzb-47" value="Menu" style="shape=ext;double=0;rounded=0;whiteSpace=wrap;html=1;labelBackgroundColor=#FFFFFF;strokeColor=#000000;strokeWidth=2;fontColor=#000000;fillColor=none;dashed=1;" vertex="1" parent="1">
                    <mxGeometry x="1140" y="440" width="120" height="40" as="geometry"/>
                </mxCell>
                <mxCell id="b8E-oc8spVKGHlDykWzb-48" value="Input Move" style="shape=ext;double=0;rounded=0;whiteSpace=wrap;html=1;labelBackgroundColor=#FFFFFF;strokeColor=#000000;strokeWidth=2;fontColor=#000000;fillColor=none;" vertex="1" parent="1">
                    <mxGeometry x="1290" y="490" width="120" height="40" as="geometry"/>
                </mxCell>
                <mxCell id="b8E-oc8spVKGHlDykWzb-71" style="edgeStyle=none;html=1;entryX=0;entryY=0.5;entryDx=0;entryDy=0;strokeColor=#0000CC;strokeWidth=2;fontColor=#000000;endArrow=none;endFill=0;" edge="1" parent="1" source="b8E-oc8spVKGHlDykWzb-49" target="b8E-oc8spVKGHlDykWzb-70">
                    <mxGeometry relative="1" as="geometry"/>
                </mxCell>
                <mxCell id="b8E-oc8spVKGHlDykWzb-49" value="Process" style="shape=ext;double=0;rounded=0;whiteSpace=wrap;html=1;labelBackgroundColor=#FFFFFF;strokeColor=#000000;strokeWidth=2;fontColor=#000000;fillColor=none;" vertex="1" parent="1">
                    <mxGeometry x="1290" y="540" width="120" height="40" as="geometry"/>
                </mxCell>
                <mxCell id="b8E-oc8spVKGHlDykWzb-69" style="edgeStyle=none;html=1;entryX=0;entryY=1;entryDx=0;entryDy=0;strokeColor=#0000CC;strokeWidth=2;fontColor=#000000;endArrow=none;endFill=0;" edge="1" parent="1" source="b8E-oc8spVKGHlDykWzb-50" target="b8E-oc8spVKGHlDykWzb-67">
                    <mxGeometry relative="1" as="geometry"/>
                </mxCell>
                <mxCell id="b8E-oc8spVKGHlDykWzb-50" value="Output" style="shape=ext;double=0;rounded=0;whiteSpace=wrap;html=1;labelBackgroundColor=#FFFFFF;strokeColor=#000000;strokeWidth=2;fontColor=#000000;fillColor=none;" vertex="1" parent="1">
                    <mxGeometry x="1290" y="590" width="120" height="40" as="geometry"/>
                </mxCell>
                <mxCell id="C_cgoFIveu7nDIHuEKbF-8" value="Toggle Active" style="shape=ext;double=0;rounded=0;whiteSpace=wrap;html=1;labelBackgroundColor=#FFFFFF;strokeColor=#000000;strokeWidth=2;fontColor=#000000;fillColor=none;" vertex="1" parent="1">
                    <mxGeometry x="1290" y="440" width="120" height="40" as="geometry"/>
                </mxCell>
                <mxCell id="b8E-oc8spVKGHlDykWzb-51" value="" style="edgeStyle=elbowEdgeStyle;elbow=horizontal;endArrow=classic;html=1;curved=0;rounded=0;endSize=8;startSize=8;strokeColor=#0000CC;strokeWidth=2;fontColor=#000000;entryX=1;entryY=0.5;entryDx=0;entryDy=0;entryPerimeter=0;exitX=1;exitY=0.5;exitDx=0;exitDy=0;exitPerimeter=0;" edge="1" parent="1" source="b8E-oc8spVKGHlDykWzb-52" target="b8E-oc8spVKGHlDykWzb-44">
                    <mxGeometry width="50" height="50" relative="1" as="geometry">
                        <mxPoint x="1410" y="660" as="sourcePoint"/>
                        <mxPoint x="1480" y="450" as="targetPoint"/>
                        <Array as="points">
                            <mxPoint x="1450" y="515"/>
                        </Array>
                    </mxGeometry>
                </mxCell>
                <mxCell id="C_cgoFIveu7nDIHuEKbF-9" value="" style="edgeStyle=elbowEdgeStyle;elbow=horizontal;endArrow=classic;html=1;curved=0;rounded=0;endSize=8;startSize=8;strokeColor=#0000CC;strokeWidth=2;fontColor=#000000;exitX=0;exitY=0.5;exitDx=0;exitDy=0;entryX=0;entryY=0.5;entryDx=0;entryDy=0;entryPerimeter=0;" edge="1" parent="1" source="b8E-oc8spVKGHlDykWzb-45">
                    <mxGeometry width="50" height="50" relative="1" as="geometry">
                        <mxPoint x="1140" y="615" as="sourcePoint"/>
                        <mxPoint x="1140" y="460" as="targetPoint"/>
                        <Array as="points">
                            <mxPoint x="990" y="560"/>
                            <mxPoint x="1110" y="525"/>
                        </Array>
                    </mxGeometry>
                </mxCell>
                <mxCell id="b8E-oc8spVKGHlDykWzb-52" value="Win?" style="strokeWidth=2;html=1;shape=mxgraph.flowchart.decision;whiteSpace=wrap;labelBackgroundColor=#FFFFFF;strokeColor=#000000;fontColor=#000000;fillColor=none;" vertex="1" parent="1">
                    <mxGeometry x="1300" y="640" width="100" height="100" as="geometry"/>
                </mxCell>
                <mxCell id="C_cgoFIveu7nDIHuEKbF-15" style="edgeStyle=none;html=1;exitX=0.5;exitY=0;exitDx=0;exitDy=0;strokeColor=#1F18F0;strokeWidth=2;fontColor=#0A0A0A;endArrow=none;endFill=0;" edge="1" parent="1" source="b8E-oc8spVKGHlDykWzb-56">
                    <mxGeometry relative="1" as="geometry">
                        <mxPoint x="1060" y="460" as="targetPoint"/>
                    </mxGeometry>
                </mxCell>
                <mxCell id="b8E-oc8spVKGHlDykWzb-56" value="Accept Abort?" style="shape=ext;double=0;rounded=0;whiteSpace=wrap;html=1;labelBackgroundColor=#FFFFFF;strokeColor=#000000;strokeWidth=2;fontColor=#000000;fillColor=none;" vertex="1" parent="1">
                    <mxGeometry x="1010" y="490" width="100" height="40" as="geometry"/>
                </mxCell>
                <mxCell id="b8E-oc8spVKGHlDykWzb-57" value="&lt;font color=&quot;#000000&quot;&gt;Chat&lt;br&gt;&lt;/font&gt;" style="strokeWidth=2;html=1;shape=mxgraph.flowchart.terminator;whiteSpace=wrap;labelBackgroundColor=none;fillColor=none;strokeColor=#000000;" vertex="1" parent="1">
                    <mxGeometry x="677" y="670" width="100" height="50" as="geometry"/>
                </mxCell>
                <mxCell id="b8E-oc8spVKGHlDykWzb-58" value="&lt;font color=&quot;#000000&quot;&gt;Game Lobby&lt;br&gt;&lt;/font&gt;" style="strokeWidth=2;html=1;shape=mxgraph.flowchart.terminator;whiteSpace=wrap;labelBackgroundColor=none;fillColor=none;strokeColor=#000000;" vertex="1" parent="1">
                    <mxGeometry x="810" y="670" width="100" height="50" as="geometry"/>
                </mxCell>
                <mxCell id="b8E-oc8spVKGHlDykWzb-59" value="&lt;font color=&quot;#000000&quot;&gt;Game Master&lt;br&gt;&amp;nbsp;&quot;Control&quot;&lt;br&gt;&lt;/font&gt;" style="strokeWidth=2;html=1;shape=mxgraph.flowchart.terminator;whiteSpace=wrap;labelBackgroundColor=none;fillColor=none;strokeColor=#000000;" vertex="1" parent="1">
                    <mxGeometry x="360" y="670" width="100" height="50" as="geometry"/>
                </mxCell>
                <mxCell id="b8E-oc8spVKGHlDykWzb-60" value="&lt;font color=&quot;#000000&quot;&gt;Server&lt;br&gt;&lt;/font&gt;" style="strokeWidth=2;html=1;shape=mxgraph.flowchart.terminator;whiteSpace=wrap;labelBackgroundColor=none;fillColor=none;strokeColor=#000000;" vertex="1" parent="1">
                    <mxGeometry x="540" y="670" width="100" height="50" as="geometry"/>
                </mxCell>
                <mxCell id="b8E-oc8spVKGHlDykWzb-61" value="Networked" style="shape=ext;double=0;rounded=0;whiteSpace=wrap;html=1;labelBackgroundColor=#FFFFFF;strokeColor=#000000;strokeWidth=2;fontColor=#000000;fillColor=none;" vertex="1" parent="1">
                    <mxGeometry x="350" y="780" width="120" height="40" as="geometry"/>
                </mxCell>
                <mxCell id="C_cgoFIveu7nDIHuEKbF-12" value="" style="endArrow=none;html=1;strokeColor=#1F18F0;strokeWidth=2;fontColor=#0A0A0A;entryX=0;entryY=0.5;entryDx=0;entryDy=0;" edge="1" parent="1" target="C_cgoFIveu7nDIHuEKbF-3">
                    <mxGeometry width="50" height="50" relative="1" as="geometry">
                        <mxPoint x="1060" y="610" as="sourcePoint"/>
                        <mxPoint x="1085" y="570" as="targetPoint"/>
                    </mxGeometry>
                </mxCell>
                <mxCell id="C_cgoFIveu7nDIHuEKbF-13" value="" style="endArrow=none;html=1;strokeColor=#1F18F0;strokeWidth=2;fontColor=#0A0A0A;entryX=0.5;entryY=1;entryDx=0;entryDy=0;" edge="1" parent="1" target="b8E-oc8spVKGHlDykWzb-56">
                    <mxGeometry width="50" height="50" relative="1" as="geometry">
                        <mxPoint x="1060" y="610" as="sourcePoint"/>
                        <mxPoint x="1120" y="579" as="targetPoint"/>
                    </mxGeometry>
                </mxCell>
                <mxCell id="C_cgoFIveu7nDIHuEKbF-14" value="" style="endArrow=none;html=1;strokeColor=#1F18F0;strokeWidth=2;fontColor=#0A0A0A;entryX=0;entryY=0.5;entryDx=0;entryDy=0;" edge="1" parent="1" target="b8E-oc8spVKGHlDykWzb-46">
                    <mxGeometry width="50" height="50" relative="1" as="geometry">
                        <mxPoint x="1060" y="560" as="sourcePoint"/>
                        <mxPoint x="1070" y="540" as="targetPoint"/>
                    </mxGeometry>
                </mxCell>
                <mxCell id="b8E-oc8spVKGHlDykWzb-62" value="Local &lt;br&gt;Single Player/Offline" style="shape=ext;double=0;rounded=0;whiteSpace=wrap;html=1;labelBackgroundColor=#FFFFFF;strokeColor=#000000;strokeWidth=2;fontColor=#000000;fillColor=none;" vertex="1" parent="1">
                    <mxGeometry x="350" y="730" width="120" height="40" as="geometry"/>
                </mxCell>
                <mxCell id="b8E-oc8spVKGHlDykWzb-63" value="UI" style="shape=ext;double=0;rounded=0;whiteSpace=wrap;html=1;labelBackgroundColor=#FFFFFF;strokeColor=#000000;strokeWidth=2;fontColor=#000000;fillColor=none;" vertex="1" parent="1">
                    <mxGeometry x="1490" y="417.5" width="120" height="40" as="geometry"/>
                </mxCell>
                <mxCell id="b8E-oc8spVKGHlDykWzb-66" style="edgeStyle=none;html=1;exitX=0;exitY=0.5;exitDx=0;exitDy=0;entryX=1;entryY=0.5;entryDx=0;entryDy=0;strokeColor=#0000CC;strokeWidth=2;fontColor=#000000;endArrow=none;endFill=0;" edge="1" parent="1" source="b8E-oc8spVKGHlDykWzb-64" target="b8E-oc8spVKGHlDykWzb-48">
                    <mxGeometry relative="1" as="geometry"/>
                </mxCell>
                <mxCell id="b8E-oc8spVKGHlDykWzb-64" value="Remote" style="shape=ext;double=0;rounded=0;whiteSpace=wrap;html=1;labelBackgroundColor=#FFFFFF;strokeColor=#000000;strokeWidth=2;fontColor=#000000;fillColor=none;" vertex="1" parent="1">
                    <mxGeometry x="1490" y="457.5" width="120" height="40" as="geometry"/>
                </mxCell>
                <mxCell id="b8E-oc8spVKGHlDykWzb-65" value="AI" style="shape=ext;double=0;rounded=0;whiteSpace=wrap;html=1;labelBackgroundColor=#FFFFFF;strokeColor=#000000;strokeWidth=2;fontColor=#000000;fillColor=none;" vertex="1" parent="1">
                    <mxGeometry x="1490" y="497.5" width="120" height="40" as="geometry"/>
                </mxCell>
                <mxCell id="b8E-oc8spVKGHlDykWzb-67" value="UI" style="shape=ext;double=0;rounded=0;whiteSpace=wrap;html=1;labelBackgroundColor=#FFFFFF;strokeColor=#000000;strokeWidth=2;fontColor=#000000;fillColor=none;" vertex="1" parent="1">
                    <mxGeometry x="1490" y="622.5" width="120" height="40" as="geometry"/>
                </mxCell>
                <mxCell id="b8E-oc8spVKGHlDykWzb-68" value="Remote" style="shape=ext;double=0;rounded=0;whiteSpace=wrap;html=1;labelBackgroundColor=#FFFFFF;strokeColor=#000000;strokeWidth=2;fontColor=#000000;fillColor=none;" vertex="1" parent="1">
                    <mxGeometry x="1490" y="662.5" width="120" height="40" as="geometry"/>
                </mxCell>
                <mxCell id="b8E-oc8spVKGHlDykWzb-70" value="Game Master" style="shape=ext;double=0;rounded=0;whiteSpace=wrap;html=1;labelBackgroundColor=#FFFFFF;strokeColor=#000000;strokeWidth=2;fontColor=#000000;fillColor=none;" vertex="1" parent="1">
                    <mxGeometry x="1490" y="562.5" width="120" height="40" as="geometry"/>
                </mxCell>
                <mxCell id="b8E-oc8spVKGHlDykWzb-72" value="&lt;font color=&quot;#000000&quot;&gt;UI&lt;br&gt;&lt;/font&gt;" style="strokeWidth=2;html=1;shape=mxgraph.flowchart.terminator;whiteSpace=wrap;labelBackgroundColor=none;fillColor=none;strokeColor=#000000;" vertex="1" parent="1">
                    <mxGeometry x="1060" y="790" width="100" height="50" as="geometry"/>
                </mxCell>
                <mxCell id="b8E-oc8spVKGHlDykWzb-73" value="Ships" style="shape=ext;double=0;rounded=0;whiteSpace=wrap;html=1;labelBackgroundColor=#FFFFFF;strokeColor=#000000;strokeWidth=2;fontColor=#000000;fillColor=none;" vertex="1" parent="1">
                    <mxGeometry x="990" y="847.5" width="120" height="40" as="geometry"/>
                </mxCell>
                <mxCell id="b8E-oc8spVKGHlDykWzb-74" value="Menu" style="shape=ext;double=0;rounded=0;whiteSpace=wrap;html=1;labelBackgroundColor=#FFFFFF;strokeColor=#000000;strokeWidth=2;fontColor=#000000;fillColor=none;" vertex="1" parent="1">
                    <mxGeometry x="990" y="887.5" width="120" height="40" as="geometry"/>
                </mxCell>
                <mxCell id="b8E-oc8spVKGHlDykWzb-75" value="Event Listeners" style="shape=ext;double=0;rounded=0;whiteSpace=wrap;html=1;labelBackgroundColor=#FFFFFF;strokeColor=#000000;strokeWidth=2;fontColor=#000000;fillColor=none;" vertex="1" parent="1">
                    <mxGeometry x="1110" y="847.5" width="120" height="40" as="geometry"/>
                </mxCell>
                <mxCell id="C_cgoFIveu7nDIHuEKbF-16" value="Boards" style="shape=ext;double=0;rounded=0;whiteSpace=wrap;html=1;labelBackgroundColor=#FFFFFF;strokeColor=#000000;strokeWidth=2;fontColor=#000000;fillColor=none;" vertex="1" parent="1">
                    <mxGeometry x="990" y="927.5" width="120" height="40" as="geometry"/>
                </mxCell>
                <mxCell id="b8E-oc8spVKGHlDykWzb-76" value="Dragdrop" style="shape=ext;double=0;rounded=0;whiteSpace=wrap;html=1;labelBackgroundColor=#FFFFFF;strokeColor=#000000;strokeWidth=2;fontColor=#000000;fillColor=none;" vertex="1" parent="1">
                    <mxGeometry x="1110" y="887.5" width="120" height="40" as="geometry"/>
                </mxCell>
                <mxCell id="C_cgoFIveu7nDIHuEKbF-17" value="Cell state" style="shape=ext;double=0;rounded=0;whiteSpace=wrap;html=1;labelBackgroundColor=#FFFFFF;strokeColor=#000000;strokeWidth=2;fontColor=#000000;fillColor=none;" vertex="1" parent="1">
                    <mxGeometry x="990" y="967.5" width="120" height="40" as="geometry"/>
                </mxCell>
                <mxCell id="b8E-oc8spVKGHlDykWzb-77" value="Attack" style="shape=ext;double=0;rounded=0;whiteSpace=wrap;html=1;labelBackgroundColor=#FFFFFF;strokeColor=#000000;strokeWidth=2;fontColor=#000000;fillColor=none;" vertex="1" parent="1">
                    <mxGeometry x="1110" y="927.5" width="120" height="40" as="geometry"/>
                </mxCell>
                <mxCell id="b8E-oc8spVKGHlDykWzb-78" value="Dragdrop" style="shape=ext;double=0;rounded=0;whiteSpace=wrap;html=1;labelBackgroundColor=#FFFFFF;strokeColor=#000000;strokeWidth=2;fontColor=#000000;fillColor=none;" vertex="1" parent="1">
                    <mxGeometry x="1110" y="967.5" width="120" height="40" as="geometry"/>
                </mxCell>
                <mxCell id="C_cgoFIveu7nDIHuEKbF-18" value="Save Game State (?)" style="shape=ext;double=0;rounded=0;whiteSpace=wrap;html=1;labelBackgroundColor=#FFFFFF;strokeColor=#000000;strokeWidth=2;fontColor=#000000;fillColor=none;" vertex="1" parent="1">
                    <mxGeometry x="520" y="730" width="140" height="40" as="geometry"/>
                </mxCell>
                <mxCell id="b8E-oc8spVKGHlDykWzb-79" value="WebSocket" style="shape=ext;double=0;rounded=0;whiteSpace=wrap;html=1;labelBackgroundColor=#FFFFFF;strokeColor=#000000;strokeWidth=2;fontColor=#000000;fillColor=none;" vertex="1" parent="1">
                    <mxGeometry x="530" y="780" width="120" height="40" as="geometry"/>
                </mxCell>
            </root>
        </mxGraphModel>
    </diagram>
</mxfile>